# xmcd
#
# Track frame offsets: 
#        150
#        22085
#        42558
#        56099
#        81577
#        101319
#        113433
#        135755
#        152715
#        170289
#        193144
#        211445
#        226820
#        248205
#        271507
#        291197
#
# Disc length: 4274 seconds
#
# Revision: 0
# Processed by: cddbd v1.5.2PL0 Copyright (c) Steve Scherf et al.
# Submitted via: ExactAudioCopy v1.3
#
DISCID=d610b010
DTITLE=Mojo Blues Band - 100% Approved - Disc 1
DYEAR=2017
DGENRE=Blues
TTITLE0=Check It Out, Baby
TTITLE1=Blow Wind, Blow Wind
TTITLE2=Sick And Tired
TTITLE3=Long Distance Call
TTITLE4=Dust My Broom
TTITLE5=Flat Foot Sam
TTITLE6=One More Mile To Go
TTITLE7=Further On Up The Road
TTITLE8=Should I Ever Love Again
TTITLE9=My Country Man
TTITLE10=Promised Land
TTITLE11=Want To Hug You
TTITLE12=The Things I Used To Do
TTITLE13=You Got To Pay The Price
TTITLE14=Sloppy Drunk
TTITLE15=I'm Not That Easy
EXTD=
EXTT0=
EXTT1=
EXTT2=
EXTT3=
EXTT4=
EXTT5=
EXTT6=
EXTT7=
EXTT8=
EXTT9=
EXTT10=
EXTT11=
EXTT12=
EXTT13=
EXTT14=
EXTT15=
PLAYORDER=
